<svg xmlns="http://www.w3.org/2000/svg" width="1737.333" height="936.528" viewBox="0 0 459.669 247.79"><defs><filter id="b" x="-.023" width="1.046" y="-.085" height="1.17" color-interpolation-filters="sRGB"><feGaussianBlur stdDeviation="9.872"/></filter><filter id="a" x="-.015" width="1.031" y="-.079" height="1.157" color-interpolation-filters="sRGB"><feGaussianBlur stdDeviation="10.41"/></filter></defs><path fill="#2a1e84" d="M0 0h459.67v247.79H0z"/><path d="M1216.52 568.18C825.918 861.334 308.78 897.175-331.636 620.468c-131.008-56.605-68.057 274.782-68.057 274.782h1615.328z" transform="matrix(.28457 0 0 .28457 114.876 -8.461)" fill="#281d7e" filter="url(#a)"/><path d="M-399.693 24.488l-13.16 270.815c399.083-.565 971.285 89.855 1035.373-270.815z" transform="matrix(.28457 0 0 .28457 117.485 -7.479)" fill="#261b74" filter="url(#b)"/><path d="M0 0v69.86C123.383 80.304 272.651 102.634 290.888 0z" fill="#1f2588"/><path d="M459.67 157.22c-124.7 41.38-195.583 107.119-420.712 16.755C-30.775 145.985 0 247.79 0 247.79h459.67z" fill="#321f89"/></svg>