<svg xmlns="http://www.w3.org/2000/svg" width="29.612" height="33.262" viewBox="0 0 7.835 8.801"><defs><filter id="a" x="-.043" width="1.087" y="-.07" height="1.14" color-interpolation-filters="sRGB"><feGaussianBlur stdDeviation=".53"/></filter></defs><rect width="7.763" height="7.763" y="1.038" ry="2.221" opacity=".998" fill="#001664"/><rect width="7.763" height="7.763" ry="2.221" opacity=".998" fill="#0027af"/><path d="M.713.591A2.212 2.212 0 000 2.221v3.321c0 .045.004.088.007.132l7.756-.2v-.242c-1.057-.406-3.307-1.443-5.856-3.706C1.45 1.121 1.056.816.713.591z" fill="#1f0097"/><path d="M-81.658 106.996a5.65 5.65 0 00-.703.076v9.737a8.373 8.373 0 008.392 8.392h12.553c4.65 0 7-3.909 8.395-8.392l1.21-3.893c-.303-.183-1.67-.51-1.91-.457-5.458 1.196-14.073 1.84-21.511-3.152-2.614-1.754-4.725-2.39-6.426-2.31z" transform="matrix(.23404 0 0 .26458 19.65 -25.363)" fill="#21004b" filter="url(#a)"/><path d="M.186 2.946c-.064.003-.126.01-.186.02v2.576c0 1.23.99 2.22 2.22 2.22h3.322c1.23 0 2.221-.99 2.221-2.22V4.35c-1.43.34-3.822.587-5.877-.792-.691-.464-1.25-.632-1.7-.611z" fill="#5b00cd"/><g fill="#f2f2f2" stroke-width="1.022" font-size="4.586" font-family="sans-serif" letter-spacing="-.153" word-spacing="0" stroke="#000"><g color="#000" font-weight="400" font-size="medium" stroke="none" aria-label="n" stroke-width=".298"><path style="line-height:4.75;font-variant-ligatures:normal;font-variant-position:normal;font-variant-caps:normal;font-variant-numeric:normal;font-variant-alternates:normal;font-variant-east-asian:normal;font-feature-settings:normal;font-variation-settings:normal;text-indent:0;text-align:start;text-decoration-line:none;text-decoration-style:solid;text-decoration-color:#000;text-transform:none;text-orientation:mixed;white-space:normal;shape-padding:0;shape-margin:0;inline-size:0;isolation:auto;mix-blend-mode:normal;solid-color:#000;solid-opacity:1" d="M6.28 4.032v1.481h-.403V4.045c0-.232-.045-.406-.136-.521-.09-.116-.226-.173-.407-.173-.218 0-.39.069-.515.208-.126.139-.189.328-.189.567v1.387h-.405V3.06h.405v.381a.988.988 0 01.34-.33.918.918 0 01.454-.11c.281 0 .495.088.64.263.144.174.216.43.216.77z" overflow="visible" enable-background="accumulate"/><path style="line-height:4.75;font-variant-ligatures:normal;font-variant-position:normal;font-variant-caps:normal;font-variant-numeric:normal;font-variant-alternates:normal;font-variant-east-asian:normal;font-feature-settings:normal;font-variation-settings:normal;text-indent:0;text-align:start;text-decoration-line:none;text-decoration-style:solid;text-decoration-color:#000;text-transform:none;text-orientation:mixed;white-space:normal;shape-padding:0;shape-margin:0;inline-size:0;isolation:auto;mix-blend-mode:normal;solid-color:#000;solid-opacity:1" d="M5.424 2.857c-.191 0-.369.042-.523.128-.05.028-.083.087-.129.124v-.05a.143.143 0 00-.141-.143h-.407a.143.143 0 00-.142.144v2.454a.143.143 0 00.142.141h.407a.143.143 0 00.141-.141V4.126c0-.215.055-.363.153-.472.099-.108.222-.16.41-.16.15 0 .232.039.294.118.062.079.105.22.105.434v1.468a.143.143 0 00.143.141h.404a.143.143 0 00.143-.141V4.032c0-.359-.077-.65-.25-.86-.174-.21-.438-.315-.75-.315zm0 .285c.253 0 .414.072.53.212.115.139.183.36.183.678V5.37h-.116V4.046c0-.251-.047-.458-.167-.61-.119-.152-.308-.227-.52-.227-.184 0-.325.095-.462.189.055-.058.106-.13.168-.164a.77.77 0 01.384-.092zM4.367 3.2h.12v.239a.143.143 0 00.188.136.968.968 0 00-.187.55V5.37h-.12z" overflow="visible" enable-background="accumulate"/></g><g color="#000" font-weight="400" font-size="medium" stroke="none" aria-label="3" stroke-width=".379"><path style="line-height:4.75;font-variant-ligatures:normal;font-variant-position:normal;font-variant-caps:normal;font-variant-numeric:normal;font-variant-alternates:normal;font-variant-east-asian:normal;font-feature-settings:normal;font-variation-settings:normal;text-indent:0;text-align:start;text-decoration-line:none;text-decoration-style:solid;text-decoration-color:#000;text-transform:none;text-orientation:mixed;white-space:normal;shape-padding:0;shape-margin:0;inline-size:0;isolation:auto;mix-blend-mode:normal;solid-color:#000;solid-opacity:1" d="M1.792 4.5c.041.233.138.427.29.582a.713.713 0 00.517.228.777.777 0 00.57-.236.775.775 0 00.24-.575.696.696 0 00-.236-.53.806.806 0 00-.574-.223H2.33v-.163L3.247 2.4H1.521v-.215h1.941l.11.162-.864 1.184c.27 0 .497.095.684.285.19.187.285.415.285.683 0 .298-.105.553-.316.763-.21.21-.464.316-.762.316-.278 0-.52-.103-.728-.307a1.2 1.2 0 01-.35-.772z" overflow="visible" enable-background="accumulate"/><path style="line-height:4.75;font-variant-ligatures:normal;font-variant-position:normal;font-variant-caps:normal;font-variant-numeric:normal;font-variant-alternates:normal;font-variant-east-asian:normal;font-feature-settings:normal;font-variation-settings:normal;text-indent:0;text-align:start;text-decoration-line:none;text-decoration-style:solid;text-decoration-color:#000;text-transform:none;text-orientation:mixed;white-space:normal;shape-padding:0;shape-margin:0;inline-size:0;isolation:auto;mix-blend-mode:normal;solid-color:#000;solid-opacity:1" d="M1.521 2.005a.182.182 0 00-.181.181V2.4a.182.182 0 00.181.182h1.357l-.69.89a.182.182 0 00-.038.111v.163a.182.182 0 00.182.181h.267c.185 0 .323.055.45.174a.182.182 0 00.001 0 .498.498 0 01.178.398.579.579 0 01-.187.445.182.182 0 000 .002.58.58 0 01-.442.184.52.52 0 01-.388-.174l-.002-.002a.885.885 0 01-.239-.486.182.182 0 00-.177-.15H1.52a.182.182 0 00-.181.196c.03.344.167.649.403.885.236.233.534.36.856.36.341 0 .65-.129.891-.37.24-.24.369-.55.369-.89 0-.31-.119-.593-.338-.81-.145-.147-.348-.173-.54-.224l.736-1.011a.182.182 0 00.004-.209l-.109-.162a.182.182 0 00-.15-.078z" overflow="visible" enable-background="accumulate"/></g></g></svg>