<svg xmlns="http://www.w3.org/2000/svg" xmlns:xlink="http://www.w3.org/1999/xlink" viewBox="0 0 26.4583 26.4583" height="100" width="100">
  <defs>
    <linearGradient id="e">
      <stop class="color-primary" offset="0" stop-color="#ff005b"/>
      <stop class="color-secondary" offset="1" stop-color="#ff00e4" stop-opacity=".9843"/>
    </linearGradient>
    <linearGradient gradientUnits="userSpaceOnUse" y2="20.5725" x2="15.9935" y1="4.2042" x1="12.8753" id="f" xlink:href="#e"/>
  </defs>
  <path class="animate__heart" d="m 17.32581,6.9713105 c -0.985,0.076646 -1.966443,0.5097125 -2.723879,1.2811742 L 13.230034,9.6509322 11.85814,8.2524847 C 10.351213,6.7175032 7.9449805,6.5197347 6.3838297,7.8320647 4.3324424,9.5589185 4.6270576,12.382265 6.091749,13.875045 l 6.981183,7.111733 v 0.0023 c 0.0507,0.0507 0.102415,0.07966 0.157102,0.07966 0.05469,0 0.106393,-0.02894 0.157105,-0.07966 v -0.0023 l 6.981183,-7.111733 C 21.821206,12.39407 22.123746,9.5545948 20.076241,7.8276394 19.299642,7.1734488 18.310811,6.8946648 17.32581,6.9713105 Z m 0.0023,0.059743 c 0.970403,-0.075607 1.946764,0.1996118 2.710601,0.8430526 2.020533,1.7042057 1.716631,4.5022909 0.287656,5.9588959 l -6.981183,7.111734 c -0.04482,0.04482 -0.08217,0.06417 -0.115062,0.06417 -0.03288,0 -0.06803,-0.01936 -0.11285,-0.06417 L 6.133843,13.833002 C 4.6927958,12.364321 4.3991053,9.5828389 6.4237113,7.8785318 7.9593611,6.5876383 10.329767,6.7804724 11.81615,8.2945263 l 1.413938,1.4427026 1.413938,-1.4427026 c 0.747181,-0.761017 1.713645,-1.1878654 2.684051,-1.2634724 z" style="line-height:normal;font-variant-ligatures:normal;font-variant-position:normal;font-variant-caps:normal;font-variant-numeric:normal;font-variant-alternates:normal;font-feature-settings:normal;text-indent:0;text-align:start;text-decoration-line:none;text-decoration-style:solid;text-decoration-color:#000;text-transform:none;text-orientation:mixed;white-space:normal;shape-padding:0;isolation:auto;mix-blend-mode:normal;solid-color:#000;solid-opacity:1" color="#000" font-weight="400" font-family="sans-serif" overflow="visible" stroke="url(#f)" stroke-width="2.6004"/>
</svg>