<?xml version="1.0" encoding="UTF-8" standalone="no"?>
<svg
   xmlns:dc="http://purl.org/dc/elements/1.1/"
   xmlns:cc="http://creativecommons.org/ns#"
   xmlns:rdf="http://www.w3.org/1999/02/22-rdf-syntax-ns#"
   xmlns:svg="http://www.w3.org/2000/svg"
   xmlns="http://www.w3.org/2000/svg"
   xmlns:xlink="http://www.w3.org/1999/xlink"
   xmlns:sodipodi="http://sodipodi.sourceforge.net/DTD/sodipodi-0.dtd"
   xmlns:inkscape="http://www.inkscape.org/namespaces/inkscape"
   width="12.61346mm"
   height="3.2783401mm"
   viewBox="0 0 12.61346 3.2783401"
   version="1.1"
   id="svg8"
   inkscape:version="1.0.1 (0767f8302a, 2020-10-17)"
   sodipodi:docname="logotext.svg">
  <defs
     id="defs2">
    <linearGradient
       inkscape:collect="always"
       id="linearGradient887">
      <stop
         style="stop-color:#00ccff;stop-opacity:1"
         offset="0"
         id="stop883" />
      <stop
         style="stop-color:#55ffdd;stop-opacity:1"
         offset="1"
         id="stop885" />
    </linearGradient>
    <linearGradient
       inkscape:collect="always"
       id="linearGradient871">
      <stop
         style="stop-color:#ff0051;stop-opacity:1"
         offset="0"
         id="stop867" />
      <stop
         style="stop-color:#ffc300;stop-opacity:1"
         offset="1"
         id="stop869" />
    </linearGradient>
    <linearGradient
       inkscape:collect="always"
       xlink:href="#linearGradient871"
       id="linearGradient873"
       x1="116.06648"
       y1="106.22952"
       x2="116.06818"
       y2="108.29553"
       gradientUnits="userSpaceOnUse" />
    <linearGradient
       inkscape:collect="always"
       xlink:href="#linearGradient887"
       id="linearGradient889"
       x1="108.93272"
       y1="107.1478"
       x2="110.52135"
       y2="107.6656"
       gradientUnits="userSpaceOnUse"
       gradientTransform="matrix(0.91621976,0,0,0.91621976,9.2133873,9.1055697)" />
  </defs>
  <sodipodi:namedview
     id="base"
     pagecolor="#ffffff"
     bordercolor="#666666"
     borderopacity="1.0"
     inkscape:pageopacity="0.0"
     inkscape:pageshadow="2"
     inkscape:zoom="5.6568543"
     inkscape:cx="29.478418"
     inkscape:cy="24.939038"
     inkscape:document-units="mm"
     inkscape:current-layer="layer1"
     inkscape:document-rotation="0"
     showgrid="false"
     inkscape:window-width="1920"
     inkscape:window-height="1016"
     inkscape:window-x="0"
     inkscape:window-y="27"
     inkscape:window-maximized="1"
     showguides="true"
     inkscape:guide-bbox="true" />
  <metadata
     id="metadata5">
    <rdf:RDF>
      <cc:Work
         rdf:about="">
        <dc:format>image/svg+xml</dc:format>
        <dc:type
           rdf:resource="http://purl.org/dc/dcmitype/StillImage" />
        <dc:title></dc:title>
      </cc:Work>
    </rdf:RDF>
  </metadata>
  <g
     inkscape:label="Layer 1"
     inkscape:groupmode="layer"
     id="layer1"
     transform="translate(-107.84974,-105.40564)">
    <path
       d="M 109.97089,107.6698 C 109.97089,107.95999 109.86704,108.20158 109.65935,108.39454 C 109.45165,108.58751 109.19166,108.68398 108.87938,108.68398 C 108.74092,108.68398 108.60835,108.66041 108.48167,108.61328 C 108.35646,108.56467 108.24746,108.49912 108.15466,108.41663 C 108.06186,108.33267 107.98747,108.23029 107.9315,108.10951 C 107.87699,107.98873 107.84974,107.85835 107.84974,107.71842 C 107.84974,107.71842 107.85989,107.5342 108.11341,107.5206 C 108.36693,107.507 108.38003,107.71842 108.38003,107.71842 C 108.39771,107.85689 108.45589,107.97178 108.55458,108.06311 C 108.65474,108.15296 108.76375,108.19789 108.88158,108.19789 C 109.0554,108.19789 109.19167,108.14781 109.29035,108.04764 C 109.39052,107.94747 109.4406,107.82449 109.4406,107.67865 C 109.4406,107.53872 109.38389,107.42382 109.27047,107.33397 C 109.15705,107.24411 109.01564,107.19918 108.84624,107.19918 C 108.77554,107.19918 108.70483,107.20949 108.63412,107.23012 C 108.63412,107.23012 108.48132,107.19475 108.48132,106.96533 C 108.48132,106.73591 108.63412,106.71309 108.63412,106.71309 C 108.87865,106.71014 109.04878,106.6711 109.14452,106.59598 C 109.24027,106.52086 109.28814,106.40007 109.28814,106.23363 C 109.28814,106.14671 109.24322,106.06864 109.15336,105.99941 C 109.06351,105.9287 108.96997,105.89335 108.87275,105.89335 C 108.74901,105.89335 108.64518,105.93091 108.56122,106.00604 C 108.47873,106.08116 108.43158,106.1828 108.4198,106.31095 C 108.4198,106.31095 108.41733,106.50512 108.15039,106.50512 C 107.88347,106.50512 107.88951,106.31095 107.88951,106.31095 C 107.88951,106.05464 107.98305,105.84032 108.17013,105.66797 C 108.35719,105.49416 108.58846,105.40726 108.86392,105.40726 C 109.13643,105.40726 109.36326,105.48533 109.54444,105.64147 C 109.7271,105.79761 109.81843,105.99793 109.81843,106.24245 C 109.81843,106.42806 109.7897,106.57462 109.73226,106.68215 C 109.67481,106.78821 109.58201,106.86555 109.45386,106.91416 C 109.79855,106.96866 109.97089,107.22054 109.97089,107.6698 Z"
       style="fill:url(#linearGradient889);fill-opacity:1;stroke-width:0.264583"
       id="path851"
       sodipodi:nodetypes="ssscccczccscsssczcsscscczccscsccs" />
    <path
       d="M 111.18987,106.67757 Q 111.06671,106.67757 110.97042,106.71787 Q 110.87637,106.75818 110.81814,106.82312 Q 110.75992,106.88582 110.72185,106.97539 Q 110.68602,107.06273 110.67259,107.1523 Q 110.65915,107.23963 110.65915,107.3404 V 108.65263 H 110.16651 V 106.27001 H 110.65915 V 106.41557 Q 110.77112,106.31256 110.89428,106.27225 Q 111.01744,106.2297 111.20778,106.2297 Q 111.4138,106.2297 111.57503,106.29017 Q 111.73626,106.34839 111.83255,106.44244 Q 111.93108,106.53649 111.99378,106.66413 Q 112.05648,106.79177 112.07887,106.91717 Q 112.10351,107.04033 112.10351,107.17469 V 108.65263 H 111.61086 V 107.13438 Q 111.61086,106.88582 111.50337,106.78281 Q 111.39588,106.67757 111.18987,106.67757 Z"
       id="path853" />
    <path
       d="M 114.94323,106.35511 Q 114.94323,106.57232 114.87605,106.74698 Q 114.80887,106.92165 114.7193,107.01794 Q 114.62973,107.11423 114.50656,107.18589 Q 114.38564,107.25531 114.30726,107.27994 Q 114.23113,107.30457 114.15275,107.31801 L 115.18955,108.65263 H 114.48417 L 113.56829,107.35384 H 112.97488 V 108.65263 H 112.43744 V 105.40564 H 113.67578 Q 114.02735,105.40564 114.27591,105.47282 Q 114.52672,105.54 114.67003,105.66988 Q 114.81559,105.79752 114.87829,105.96547 Q 114.94323,106.13341 114.94323,106.35511 Z M 114.40579,106.35511 Q 114.40579,106.10654 114.20202,106.00353 Q 114.00048,105.89829 113.62204,105.89829 H 112.97488 V 106.86119 H 113.63099 Q 114.04751,106.86119 114.22665,106.72907 Q 114.40579,106.59471 114.40579,106.35511 Z"
       id="path855" />
    <path
       d="M 117.84993,108.65263 L 117.20053,106.27449 H 117.76036 L 118.13656,107.83753 L 118.63816,106.27449 H 119.0502 L 119.58091,107.83753 L 119.95488,106.27449 H 120.4632 L 119.87426,108.65263 H 119.32787 Q 119.19127,108.15775 118.84418,107.13886 L 118.40528,108.65263 Z"
       id="path859" />
    <circle
       style="opacity:1;fill:none;stroke:url(#linearGradient873);stroke-width:0.445;stroke-linecap:round;stroke-linejoin:round;stroke-miterlimit:4;stroke-dasharray:none"
       id="path845"
       r="1.0004618"
       cy="107.45158"
       cx="116.10243" />
  </g>
</svg>
