<svg xmlns="http://www.w3.org/2000/svg" width="518.547" height="518.547" viewBox="0 0 137.199 137.199"><path d="M0 3.42s-31.09 60.009-23.087 89.893C-20.242 103.94-.001 116.9-.001 116.9H0c4.629 2.415 8.937 2.109 13.525 1.167 33.837-6.948 98.734-45.162 123.674-44.993 0 0 13.239-4.655 15.426-10.472C159.802 43.52 137.2 3.42 137.2 3.42z" fill="#1c2573"/><path d="M137.199 66.268c-24.94-.161-89.837 36.196-123.674 42.806-4.588.896-8.896 1.187-13.525-1.11 0 0-10.5-7.695-14.344-4.22-3.845 3.475 2.975 15.866 2.975 15.866L0 126.674 3.37 137.2h133.829s13.75 1.84 17.818-2.571c12.465-13.515 7.896-44.097 3.45-55.049-4.9-12.07-21.268-13.312-21.268-13.312z" fill="#192166"/><path d="M137.199 78.87c-10.07.363-36.395 3.706-61.032 27.196-31.274 29.818-63.977 24.947-63.977 24.947l-6.694-1.48L0 127.004s-18.44-4.624-19.495 1.817C-20.645 135.837 0 137.474 0 137.474l4.26.065 51.924 1.226 81.015-1.566s19.935-19.584 19.54-31.286c-.22-6.543-2.326-17.666-7.647-23.167-4.195-4.336-11.893-3.876-11.893-3.876z" fill="#171f5f"/><path d="M0 0s-26.709-8.092-34.468.382c-6.755 7.378-5.205 23.313 2.306 29.92C-24.102 37.392 0 28.666 0 28.666c10.585-5.78 29.592-14.754 53.187-19.76 30.069-6.38 67.025-4.153 84.012-2.59 0 0 13.171 3.896 23.115 9.933 12.587 7.642 18.177-8.877 11.254-12.843C164.865-.434 139.58-1.547 137.2 0z" fill="#1b246e"/></svg>