<?xml version="1.0" standalone="no"?>
<!DOCTYPE svg PUBLIC "-//W3C//DTD SVG 20010904//EN"
 "http://www.w3.org/TR/2001/REC-SVG-20010904/DTD/svg10.dtd">
<svg version="1.0" xmlns="http://www.w3.org/2000/svg"
 width="1056.000000pt" height="1056.000000pt" viewBox="0 0 1056.000000 1056.000000"
 preserveAspectRatio="xMidYMid meet">
<metadata>
Created by potrace 1.11, written by Peter Selinger 2001-2013
</metadata>
<g transform="translate(0.000000,1056.000000) scale(0.100000,-0.100000)"
fill="#000000" stroke="none">
<path d="M3025 10549 c-648 -61 -1225 -329 -1670 -774 -435 -434 -702 -1008
-764 -1639 -15 -150 -15 -5523 0 -5686 33 -368 122 -682 283 -995 137 -268
288 -475 497 -682 211 -209 406 -348 674 -484 322 -162 629 -248 1000 -279 91
-8 776 -10 2275 -8 1981 4 2154 5 2260 21 189 29 336 65 508 123 873 293 1536
1029 1736 1924 59 266 58 249 66 1160 10 1156 2 4762 -11 4910 -83 919 -642
1737 -1464 2140 -276 135 -504 205 -845 258 -94 15 -324 16 -2280 18 -1196 1
-2215 -2 -2265 -7z m1771 -2404 c28 -8 64 -29 83 -47 39 -38 166 -225 187
-274 18 -43 18 -115 -1 -160 -8 -19 -81 -126 -162 -237 -585 -802 -743 -1020
-741 -1023 2 -1 73 -20 158 -42 286 -73 382 -123 521 -270 177 -186 288 -403
346 -672 22 -106 25 -397 4 -510 -113 -626 -581 -1104 -1211 -1237 -121 -26
-442 -26 -555 0 -306 70 -534 194 -753 410 -213 210 -364 476 -437 767 -52
205 -61 340 -27 407 27 51 81 99 129 112 21 6 128 11 238 11 220 0 250 -7 308
-66 41 -41 52 -68 72 -164 36 -179 111 -335 232 -482 104 -127 230 -211 366
-243 79 -19 232 -19 321 0 231 49 465 264 543 499 24 73 27 95 27 231 0 168
-12 219 -79 334 -59 101 -193 219 -319 283 -116 59 -185 70 -476 77 -287 7
-296 8 -352 68 -49 51 -58 89 -58 245 0 171 6 188 108 317 38 47 194 248 347
446 153 198 307 397 342 441 35 45 63 85 63 88 0 3 -373 6 -828 6 l-828 0 -55
28 c-35 17 -64 42 -84 70 l-30 44 -3 193 c-3 177 -1 197 17 232 28 56 92 111
138 118 21 4 43 8 48 10 6 2 537 4 1181 4 1004 1 1177 -1 1220 -14z m2594
-1040 c112 -25 273 -89 359 -142 148 -92 291 -253 376 -421 49 -99 110 -289
129 -402 32 -193 36 -332 36 -1273 0 -830 -2 -952 -15 -984 -21 -50 -42 -72
-90 -94 -36 -17 -69 -19 -308 -19 -286 0 -313 4 -365 53 -54 50 -52 5 -52 989
0 1095 -4 1164 -80 1326 -52 111 -115 169 -219 202 -78 25 -270 27 -374 5
-137 -29 -256 -108 -342 -230 -54 -75 -78 -128 -108 -232 -21 -77 -22 -88 -27
-1033 l-5 -955 -23 -37 c-13 -20 -40 -47 -60 -60 -36 -22 -45 -23 -307 -26
-293 -4 -330 1 -378 46 -59 56 -56 -50 -58 1598 -1 1352 0 1523 14 1549 19 38
54 71 90 84 38 15 576 15 614 0 63 -23 112 -100 113 -174 l0 -39 68 70 c74 78
130 109 291 163 151 51 230 61 451 57 134 -3 218 -9 270 -21z"/>
</g>
</svg>
